# xmcd
#
# Track frame offsets:
#	150
#	15632
#	35679
#	54755
#	72670
#	92671
#	145578
#	162477
#	181536
#	215026
#	235302
#	258452
#	279176
#	299576
#
# Disc length: 4231 seconds
#
# Revision: 2
# Processed by: cddbd v1.5.2PL0 Copyright (c) Steve Scherf et al.
# Submitted via: EZCDAudioConverter 1.0.4.1
#
DISCID=cb10850e
DTITLE=Various (Kenya) - Kenya Beat - The Ultimate Collection Vol 1 Disc 2
DYEAR=2007
DGENRE=Kenyan
TTITLE0=Abbi - Mtoto Wa Baba
TTITLE1=Mercy Myra - Sioni
TTITLE2=Joseph Hellon - Utimoru Nade
TTITLE3=Jua cali - Kamata Dame
TTITLE4=Jemimah Thiong'o - Mwenye Baraka
TTITLE5=Ja'mnazi Afrika - I 'm Not Sober
TTITLE6=Kaz - Little Tamara
TTITLE7=The MIghty King Kong - Cinderella Mama
TTITLE8=Ohanglaman Makadem - Nya Malo
TTITLE9=Yunasi - Ji Opogore
TTITLE10=Festo Matei and Muema Brothers - Stella
TTITLE11=Iddi - Thin Lich
TTITLE12=Nyota Ndogo - Watu Na Viatu
TTITLE13=Longombas - Piga Makofi
EXTD=
EXTT0=
EXTT1=
EXTT2=
EXTT3=
EXTT4=
EXTT5=
EXTT6=
EXTT7=
EXTT8=
EXTT9=
EXTT10=
EXTT11=
EXTT12=
EXTT13=
PLAYORDER=
